<svg version="1.0" xmlns="http://www.w3.org/2000/svg" width="212" height="188" viewBox="0 0 159 141"><path d="M0 27.2v27.3l14.2-14c13.9-13.7 14-13.8 3.4-2.6-6 6.3-12 13.2-13.4 15.4-4.8 7.2-2.8 17 5 24.4 6.7 6.5 21.6 11.1 26.7 8.3 4.4-2.3 5.1-6.3 5.1-30.1V33.8l3.8.6c14.4 2.6 21.3 6.8 30 18.6 8.2 11 10 12 22.4 12 15 0 20.8 3.3 20.8 11.9 0 5.2-4.9 18.7-9 24.9-8.2 12.3-14.3 14.2-45.5 14.2-33.5 0-39.8-2-54.7-17.1L0 90.1V141h159V0H0v27.2zM116 49v8h-7V41h7v8zm25-3.5 2.4 2.6-8.9 8.9-8.9 9-2.8-2.7-2.8-2.7 8.7-8.8c4.8-4.8 9-8.8 9.4-8.8.3 0 1.6 1.1 2.9 2.5zm4 28V77h-18v-7h18v3.5z"/><path d="M58.3 58.2C51.5 61.5 54.3 72 62 72c2.8 0 7-4.4 7-7.3 0-5.1-6.1-8.8-10.7-6.5z"/></svg>