<?xml version="1.0" standalone="no"?>
<!DOCTYPE svg PUBLIC "-//W3C//DTD SVG 20010904//EN"
 "http://www.w3.org/TR/2001/REC-SVG-20010904/DTD/svg10.dtd">
<svg version="1.0" xmlns="http://www.w3.org/2000/svg"
 width="159.000000pt" height="141.000000pt" viewBox="0 0 159.000000 141.000000"
 preserveAspectRatio="xMidYMid meet">

<g transform="translate(0.000000,141.000000) scale(0.100000,-0.100000)"
fill="#000000" stroke="none">
<path d="M0 1138 l0 -273 142 140 c139 137 140 138 34 26 -60 -63 -120 -132
-134 -154 -48 -72 -28 -170 50 -244 67 -65 216 -111 267 -83 44 23 51 63 51
301 l0 221 38 -6 c144 -26 213 -68 300 -186 82 -110 100 -120 224 -120 150 0
208 -33 208 -119 0 -52 -49 -187 -90 -249 -82 -123 -143 -142 -455 -142 -335
0 -398 20 -547 171 l-88 88 0 -255 0 -254 795 0 795 0 0 705 0 705 -795 0
-795 0 0 -272z m1160 -218 l0 -80 -35 0 -35 0 0 80 0 80 35 0 35 0 0 -80z
m250 35 l24 -26 -89 -89 -89 -90 -28 27 -28 27 87 88 c48 48 90 88 94 88 3 0
16 -11 29 -25z m40 -280 l0 -35 -90 0 -90 0 0 35 0 35 90 0 90 0 0 -35z"/>
<path d="M583 828 c-68 -33 -40 -138 37 -138 28 0 70 44 70 73 0 51 -61 88
-107 65z"/>
</g>
</svg>
